<svg width="32" height="32" viewBox="0 0 32 32" fill="none" xmlns="http://www.w3.org/2000/svg">
  <path d="M4 10 L4 5 Q4 4 5 4 L10 4" stroke="#3B82F6" stroke-width="2.5" stroke-linecap="round"/>
  <path d="M22 4 L27 4 Q28 4 28 5 L28 10" stroke="#3B82F6" stroke-width="2.5" stroke-linecap="round"/>
  <path d="M28 22 L28 27 Q28 28 27 28 L22 28" stroke="#3B82F6" stroke-width="2.5" stroke-linecap="round"/>
  <path d="M10 28 L5 28 Q4 28 4 27 L4 22" stroke="#3B82F6" stroke-width="2.5" stroke-linecap="round"/>
  <circle cx="16" cy="16" r="6.5" fill="#FACC15"/>
  <circle cx="16" cy="16" r="5" fill="#FDE68A"/>
  <circle cx="16" cy="16" r="1" fill="#F59E0B"/>
  <line x1="16" y1="10" x2="16" y2="22" stroke="#F59E0B" stroke-width="0.8" opacity="0.5"/>
  <line x1="10" y1="16" x2="22" y2="16" stroke="#F59E0B" stroke-width="0.8" opacity="0.5"/>
  <line x1="11.5" y1="11.5" x2="20.5" y2="20.5" stroke="#F59E0B" stroke-width="0.6" opacity="0.35"/>
  <line x1="20.5" y1="11.5" x2="11.5" y2="20.5" stroke="#F59E0B" stroke-width="0.6" opacity="0.35"/>
</svg>
